<svg width="171" height="129" viewBox="0 0 171 129" fill="none" xmlns="http://www.w3.org/2000/svg">
<g clip-path="url(#clip0_0_3)">
<path d="M170.12 19.18L168.12 44.97C158.5 46.81 152.51 42.65 145.19 37.49C134.4 46.15 118.71 48.26 115.08 63.43C114.11 67.47 112.79 72.29 116.73 75.06C122.2 70.45 124.53 63.43 132.97 66.84C141.19 70.16 136.2 86.66 133.72 93.07C132.99 94.96 129.99 97.93 130.22 99.55C130.45 101.17 131.41 100.92 132.72 100.08C137.29 97.15 136.97 90.48 145.68 92.09C150.02 92.89 150.09 98.81 148.7 102.06C147.78 104.22 139.71 110.5 137.27 111.62C128.01 115.89 113.73 117.55 123.23 103.59C117.27 100.14 116.96 97.59 117.74 91.06C115.99 88.26 113.67 92.62 112.15 93.48C109.53 94.97 107 95.64 104.24 94.07C103.31 95.2 112.16 115.8 108.28 122.62C103.85 130.41 79.46 131.6 86.16 117.5C91.1 115.2 97.06 120.46 100.21 115.55L92.05 105.74C89.92 96.99 80.65 84.32 84.15 75.49C85.39 72.37 88.61 71.18 89.67 69.01C92.88 62.42 92.42 50.78 82.77 51.02C74.62 51.22 77.12 56.02 73.65 61C70.25 65.89 62.11 67.11 64.99 74.78C67.73 82.06 75.06 82.55 74.28 93.61C73.38 106.28 58.07 108.24 56.61 114.02C55.9 116.83 66.67 118.41 63.1 124.96C53.67 128.92 42.58 123.51 43.73 113.08L58.18 95.56C55.45 92.95 53.76 89.4 50.71 87.06C46.08 83.51 40.15 83.65 39.2 76.06C36.65 75.66 37.65 76.28 37.12 77.46C36.19 79.53 35.7 83.55 34.28 85.36C33.1 86.86 30.28 86.86 29.14 88.48C27.03 91.46 29.24 98.36 21.17 95.63C17.01 94.22 6.72 75.29 11.9 74.02C13.95 74.2 16.71 73.58 18.57 74.22C20.57 74.9 20.44 78.67 23.22 78.05C25.49 65.6 29.27 47.12 44.22 62.05C44.05 59.34 42.32 57.38 42.18 54.51C42.03 51.5 45.51 42.66 39.89 44.19C36.83 45.02 32.32 53.86 27.64 50.14C24.64 47.75 27.58 44.97 27.08 42.75C26.86 41.77 12.22 30.94 11.27 30.62C9.09 29.89 7.83 32.67 4.77 29.01C1 24.51 3.48 21.2 2.68 19.01C2.12 17.47 -1.02 16.72 0.34 12.69C1.35 9.72 11.31 10.97 14.14 12.15C14.79 15.12 13.29 17.53 11.31 19.56C11.31 20.52 24.96 30.69 26.54 31.31C30.12 32.71 36.89 29.56 41.62 32.93C44.14 32.35 43.97 26.19 45.75 24.08C47.13 22.45 50.76 22.07 51.73 20.06C53.95 15.47 49.58 6.95 56.26 2.59C63.14 -1.89 75.37 3.95 83.31 3.49C86.91 4.42 86.89 10.66 85.27 13.36C84.45 14.72 81.02 15.33 80.37 17.78C79.02 22.82 87.21 31.98 76.24 36.55C76.14 38.62 90.72 38.83 92.73 37.06C97.6 32.78 89.44 31.43 89.18 30.39C87.89 25.17 91.79 24.04 92.16 22.42C92.47 21.08 83.58 14.49 90.81 7.14C96.95 0.89 104.62 5.94 110.47 4.87C114.22 4.18 117.26 -0.96 120.61 0.13C124.5 1.4 120.49 6.27 120.5 8.36C120.52 13.67 124.12 19.87 126.31 24.53C126.06 26.99 122.7 27.49 121.2 29.52C118.5 33.19 118.04 38.2 112.25 40.55C113.83 42.77 116.14 42.15 118.49 41.81C121.7 41.35 139.05 32.99 141.6 30.91C144.73 28.36 144.19 23.52 149.97 21.28C151.29 20.77 153.18 21.32 154.52 20.83C156.12 20.25 156.62 18.5 158.75 18.07C162.29 17.35 166.64 18.41 170.13 19.16L170.12 19.18Z" fill="black"/>
</g>
<defs>
<clipPath id="clip0_0_3">
<rect width="170.12" height="128.35" fill="black"/>
</clipPath>
</defs>
</svg>
